<svg xmlns="http://www.w3.org/2000/svg" width="60" height="60" fill="none" viewBox="0 0 60 60"><defs/><path fill="#68B738" d="M0 0h60v60H0z"/><circle cx="35.2" cy="24.33" r="1.09" fill="#fff"/><circle cx="24.33" cy="24.33" r="1.09" fill="#fff"/><circle cx="24.33" cy="37.35" r="1.09" fill="#fff"/><circle cx="29.77" cy="39.52" r="1.09" fill="#fff"/><circle cx="21.07" cy="30.77" r="1.09" fill="#fff"/><circle cx="38.47" cy="30.77" r="1.09" fill="#fff"/><circle cx="35.2" cy="37.35" r="1.09" fill="#fff"/><mask id="a" fill="#fff"><path fill-rule="evenodd" d="M34.92 42.06c.41-.2.9-.13 1.22.2l1.82 1.87a.68.68 0 00.98-.95l-1.36-1.4c-.42-.43-.36-1.14.1-1.55A12.75 12.75 0 0042 30.61C42 23.65 36.52 18 29.77 18 23 18 17.54 23.65 17.54 30.61c0 3.82 1.64 7.24 4.23 9.55.45.4.51 1.11.1 1.55l-1.44 1.47a.68.68 0 10.97.95l1.88-1.93c.32-.33.82-.4 1.23-.2a11.88 11.88 0 0010.41.06zm-5.15-.23c6 0 10.87-5.02 10.87-11.22 0-6.19-4.87-11.2-10.87-11.2-6 0-10.88 5.01-10.88 11.2 0 6.2 4.87 11.22 10.88 11.22zM29 30.3V22.94a.78.78 0 111.56 0v8.18a.8.8 0 01-.8.8.76.76 0 01-.76-.75V30.3z" clip-rule="evenodd"/></mask><path fill="#fff" fill-rule="evenodd" d="M34.92 42.06c.41-.2.9-.13 1.22.2l1.82 1.87a.68.68 0 00.98-.95l-1.36-1.4c-.42-.43-.36-1.14.1-1.55A12.75 12.75 0 0042 30.61C42 23.65 36.52 18 29.77 18 23 18 17.54 23.65 17.54 30.61c0 3.82 1.64 7.24 4.23 9.55.45.4.51 1.11.1 1.55l-1.44 1.47a.68.68 0 10.97.95l1.88-1.93c.32-.33.82-.4 1.23-.2a11.88 11.88 0 0010.41.06zm-5.15-.23c6 0 10.87-5.02 10.87-11.22 0-6.19-4.87-11.2-10.87-11.2-6 0-10.88 5.01-10.88 11.2 0 6.2 4.87 11.22 10.88 11.22zM29 30.3V22.94a.78.78 0 111.56 0v8.18a.8.8 0 01-.8.8.76.76 0 01-.76-.75V30.3z" clip-rule="evenodd"/><path fill="#fff" d="M23.28 42.2l2.87 2.79-2.87-2.8zm1.23-.2l1.76-3.58L24.51 42zm-3.1 2.13l-2.87-2.8 2.86 2.8zm-.98-.95l2.86 2.79-2.86-2.8zm17.15-1.4l-2.86 2.8 2.86-2.8zm.1-1.55l-2.63-3 2.63 3zm-15.9-.07l-2.67 2.99 2.66-2.99zm.08 1.55L19 38.9l2.86 2.8zm17.08 1.47l2.87-2.8-2.87 2.8zm-.98.95l2.87-2.8-2.87 2.8zm-1.82-1.88l-2.87 2.8 2.87-2.8zm-1.22-.2l-1.73-3.6 1.73 3.6zm-1.65 3l1.83 1.87 5.73-5.58L39 39.46l-5.73 5.58zm8.54-4.66l-1.36-1.4-5.73 5.59 1.36 1.39 5.73-5.58zm-1.5 2.85A16.75 16.75 0 0046 30.61h-8a8.75 8.75 0 01-2.95 6.61l5.27 6.02zM46 30.61C46 21.56 38.85 14 29.77 14v8C34.2 22 38 25.74 38 30.61h8zM29.77 14c-9.08 0-16.23 7.56-16.23 16.61h8c0-4.87 3.8-8.61 8.23-8.61v-8zM13.54 30.61c0 4.98 2.14 9.48 5.57 12.54l5.32-5.97a8.75 8.75 0 01-2.9-6.57h-8zm5.46 8.3l-1.44 1.48 5.73 5.58 1.44-1.47L19 38.9zm5.27 8.01l1.88-1.93-5.73-5.58-1.88 1.93 5.73 5.58zm-1.52-1.32a15.88 15.88 0 007.02 1.63v-8c-1.26 0-2.44-.3-3.5-.81l-3.52 7.18zm7.02 1.63c2.45 0 4.79-.56 6.88-1.57l-3.46-7.2c-1.04.5-2.2.77-3.42.77v8zm0-1.4c8.33 0 14.87-6.93 14.87-15.22h-8c0 4.1-3.2 7.22-6.87 7.22v8zM44.64 30.6c0-8.28-6.54-15.2-14.87-15.2v8c3.68 0 6.87 3.1 6.87 7.2h8zm-14.87-15.2c-8.33 0-14.88 6.92-14.88 15.2h8c0-4.1 3.2-7.2 6.88-7.2v-8zM14.89 30.6c0 8.29 6.55 15.22 14.88 15.22v-8c-3.68 0-6.88-3.11-6.88-7.22h-8zm11.68-.31v.54h8v-.54h-8zm0 .54v.28h8v-.28h-8zm6.44.33v-.33h-8v.33h8zm0-.33v-.54h-8v.54h8zm0-.54v-3.8h-8v3.8h8zm0-3.8v-3.56h-8v3.56h8zm-6.44-3.56v3.56h8v-3.56h-8zm0 3.56v3.8h8v-3.8h-8zm3.22-8.34A4.78 4.78 0 0025 22.94h8a3.22 3.22 0 01-3.22 3.22v-8zm-3.22 12.96a3.2 3.2 0 013.2-3.2v8a4.8 4.8 0 004.8-4.8h-8zM26.15 45c-1 1.02-2.4 1.1-3.4.6l3.52-7.17a5.06 5.06 0 00-5.85.99l5.73 5.58zm-8.59 1.93a4.68 4.68 0 006.71 0l-5.73-5.58a3.32 3.32 0 014.75 0l-5.73 5.58zm0-6.53a4.68 4.68 0 000 6.53l5.73-5.58a3.32 3.32 0 010 4.63l-5.73-5.58zm22.89-1.4a2.93 2.93 0 01-.13 4.25l-5.27-6.02a5.08 5.08 0 00-.33 7.36l5.73-5.59zM29.79 26.16a3.22 3.22 0 01-3.22-3.22h8a4.78 4.78 0 00-4.78-4.78v8zM19.1 43.15A2.93 2.93 0 0119 38.9l5.73 5.59a5.07 5.07 0 00-.3-7.32l-5.32 5.97zm22.7 3.77a4.68 4.68 0 000-6.53l-5.73 5.58a3.32 3.32 0 010-4.63l5.73 5.58zm-6.71 0a4.68 4.68 0 006.7 0l-5.72-5.58a3.32 3.32 0 014.75 0l-5.73 5.58zm-5.33-19A3.24 3.24 0 0133 31.18h-8a4.76 4.76 0 004.76 4.76v-8zM39 39.47a5.06 5.06 0 00-5.8-1l3.45 7.2c-1 .49-2.4.4-3.38-.62L39 39.46z" mask="url(#a)"/><path fill="#fff" d="M29 19v-4h1.5v4z"/><rect width="15.5" height="1.5" x="22" y="15" fill="#fff" rx=".75"/></svg>
