<svg xmlns="http://www.w3.org/2000/svg" width="60" height="60" fill="none" viewBox="0 0 60 60"><defs><path id="reuse-0" d="M43.65 39.82V21.16c0-.58-.38-.65-.53-.66h-.5c-.5 0-.54.56-.54.74V39.84a2.68 2.68 0 01-.82 1.89c-.81.7-1.62.6-1.62.6s-20.18 0-20.66-.03a2.3 2.3 0 01-1.6-1c-.57-.8-.46-1.85-.46-1.85V21.3c0-.83-.67-.8-.67-.8h-.3c-.54 0-.6.58-.6.77v18.54c0 1.33.46 2.4 1.55 3.33 1.1.94 2.38.86 2.38.86h20.58c.86 0 1.98-.42 2.91-1.56.93-1.14.88-2.63.88-2.63z"/></defs><path fill="#68B738" d="M0 0h60v60H0z"/><g fill="#fff" clip-path="url(#clip0)"><path d="M35.78 31.47c-1.71 0-3.1 1.48-3.1 3.3 0 1.83 1.4 3.3 3.1 3.3 1.7 0 3.08-1.47 3.08-3.3 0-1.82-1.38-3.3-3.08-3.3zm0 5.02c-.89 0-1.6-.77-1.6-1.71 0-.95.71-1.72 1.6-1.72.88 0 1.6.77 1.6 1.72 0 .94-.72 1.7-1.6 1.7zM26.6 12.99c-1.75 0-3.18 1.52-3.18 3.4 0 1.89 1.43 3.41 3.19 3.41s3.18-1.52 3.18-3.4c0-1.89-1.42-3.41-3.18-3.41zm0 5.48c-1.06 0-1.93-.93-1.93-2.07 0-1.15.87-2.07 1.94-2.07 1.07 0 1.93.92 1.93 2.07 0 1.14-.86 2.07-1.93 2.07zM23.23 30.61c-1.3 0-2.34 1.12-2.34 2.5 0 1.39 1.04 2.5 2.34 2.5 1.3 0 2.34-1.11 2.34-2.5 0-1.38-1.05-2.5-2.34-2.5zM23 32.5c-.46 0 1.16 1.1 1.16.61 0-.49-1.62.39-1.16.39.46 0 1.06-.88 1.06-.39 0 .5-.6-.61-1.06-.61zM33.5 22.76s3.04-.84 6.18 1.5c.9.76 1.76 1.33 1.15 2.12-.34.34-.64.66-1.72-.53a6.92 6.92 0 00-5.61-1.44c-1.13.24-1.96.55-3.56 2.15a8.27 8.27 0 01-6.5 2.5c-2.52-.24-3.84-1.27-5.24-2.55-.3-.42-.3-.87-.12-1.13.17-.26.83-.52 1.2-.13.37.4 2.1 1.97 3.82 2.07 1.72.1 3.44.21 5.74-1.96 2.3-2.18 3.46-2.34 4.66-2.6z"/><mask id="a"><use href="#reuse-0"/></mask><use href="#reuse-0"/><path d="M43.65 39.82h-20v.38l.01.39 19.99-.77zm-.53-19.32L43.83.51h-.71v20zm-1.04.74l-20-.15V21.24h20zm0 .06h-20 20zm0 18.54l-19.99-.76v.02l19.99.74zm-.82 1.89l13.03 15.16.44-.37.4-.4-13.87-14.4zm-1.62.6l2.26-19.87-1.13-.13h-1.13v20zm-20.66-.03l-3.4 19.71 1.14.2 1.15.06 1.11-19.97zm-1.6-1L1.03 52.82 17.39 41.3zm-.46-1.85l19.9 2.1.1-1.05v-1.05h-20zm-.67-18.95v20h.39l.38-.01-.77-19.99zm-.9.78l-20-.29V21.28h20zm1.55 21.87L3.88 58.33 16.9 43.15zm2.38.86V24h-.65l-.64.04 1.29 19.96zm23.5-1.56L58.25 55.1 42.78 42.45zm20.87-2.63V21.16h-40v18.66h40zm0-18.66A20.54 20.54 0 0043.84.52L42.4 40.48a19.46 19.46 0 01-18.76-19.33h40zM43.12.5h-.5v40h.5V.5zm-.5 0a20.47 20.47 0 00-18.7 12.12c-1.8 4-1.83 7.56-1.84 8.47l40 .3c0 .73-.02 3.91-1.67 7.6a19.47 19.47 0 01-17.8 11.51V.5zM22.08 21.24v.05h40v-.01-.01-.01-.01h-40zm0 .05v.01h40-40zm0 .02v10.51a8664.75 8664.75 0 010 7.25c0 .8 0 .45.01.01l39.97 1.52c.02-.51.02-1.37.02-1.45a1362.33 1362.33 0 000-7.34V21.3l-40 .02zm.01 17.79c.05-1.35.38-7.05 5.28-11.77l27.77 28.8a22.68 22.68 0 006.92-15.54l-39.97-1.5zm6.13-12.54a17.51 17.51 0 0112.43-4.2 19.31 19.31 0 011.17.1h.06s.02 0-2.24 19.87a2063.4 2063.4 0 00-2.24 19.88h.02a42.98 42.98 0 001.28.1 21.38 21.38 0 005.56-.45A22.49 22.49 0 0054.3 56.9L28.22 26.56zm11.42 15.77v-20h-.02-3.14a17380.76 17380.76 0 01-16.39-.02c-1.07 0-.61 0 0 .03l-2.22 39.93c.97.06 7.17.06 11.6.06h10.16v-20zM22.38 22.6c.43.08 2.52.43 4.93 1.66 2.57 1.3 4.78 3.2 6.4 5.51L1.05 52.83c5 7.08 11.87 8.72 14.55 9.18l6.79-39.42zm11.34 7.18a17.34 17.34 0 013.13 11.4 18.52 18.52 0 01-.03.28v.08c0 .01 0 .02-19.9-2.08a3223.4 3223.4 0 00-19.89-2.08v.03a19.88 19.88 0 00-.11 1.94 22.66 22.66 0 004.12 13.48l32.68-23.05zm3.2 9.68V21.3h-40v18.14h40zm0-18.14A20.74 20.74 0 0017.28.53 20.46 20.46 0 0015.5.52c-.01 0-.03 0 .75 19.98.77 19.99.76 19.99.75 19.99h-.07a28.23 28.23 0 01-1.65-.01A19.35 19.35 0 01-3.08 21.3h40zM16.25.51h-.3v40h.3V.5zm-.3 0A20.52 20.52 0 00-2.68 12.34 21.17 21.17 0 00-4.64 21l40 .58c-.02.76-.05 4-1.8 7.72A19.44 19.44 0 0115.95 40.5V.5zm-20.6 20.77V39.82h40v-.01-.02-.01-.01-.02-.02-.02-.02-.02-.01-.01-.02-.02-.01-.02-.01-.01-.02-.01-.02-.01-.02-.01-.02-.01-.02-.01-.02-.02-.02-.01-.02-.02-.02-.01-.02-.02-.02-.02-.02-.02-.02-.02-.02-.02-.02-.02V39v-.03-.02-.02-.02-.03-.02-.02-.02-.03-.02-.03-.02-.02-.03-.02-.03-.02-.03-.02-.03-.03-.02-.03-.03-.02-.03-.03-.03-.02-.03-.03-.03-.03-.03-.02-.03-.03-.03V38v-.03-.03-.03-.03-.03-.03-.04-.03-.03-.03-.03-.03-.04-.03-.03-.03-.04-.03-.03-.04-.03-.03-.04-.03-.04-.03-.04-.03-.04-.03-.04-.03-.04-.03-.04-.03-.04-.04-.03-.04-.04-.03-.04-.04-.04-.03-.04-.04-.04-.04-.03-.04-.04-.04-.04-.04-.04-.04-.04-.03-.04-.04-.04-.04-.04-.04-.04-.05-.04-.04-.04-.04-.04-.04-.04-.04-.05-.04-.04-.04-.04-.05-.04-.04-.04-.05-.04-.04-.04-.05-.04-.04-.05-.04-.04-.05-.04-.04-.05-.04-.05-.04-.04-.05V34v-.05-.04-.05-.04-.05-.04-.05-.04-.05-.04-.05-.04-.05-.04-.05-.04-.05-.05-.04-.05-.04V33v-.05-.04-.05-.04-.05-.05-.04-.05-.05-.04-.05-.05-.04-.05-.05-.04-.05-.05-.04-.05-.05-.04-.05-.05-.05-.04-.05-.05-.05-.04-.05-.05-.05-.04-.05-.05-.05-.04-.05-.05-.05-.04-.05-.05-.05-.04-.05-.05-.05-.05-.04-.05-.05-.05-.04-.05-.05-.05-.05-.04-.05-.05-.05-.05-.04-.05-.05-.05-.04-.05-.05-.05-.05-.04-.05-.05-.05-.04-.05-.05-.05-.05-.04-.05-.05-.05-.04-.05-.05-.04-.05-.05-.05-.04-.05-.05-.05-.04-.05-.05-.04-.05-.05-.04-.05-.05-.04-.05-.05-.04-.05-.05-.04-.05-.05-.04-.05-.04-.05-.05-.04-.05-.04-.05-.05-.04V27v-.04-.05-.04-.05-.04-.05-.04-.05-.04-.05-.04-.05-.04-.05-.04-.05-.04-.04-.05-.04-.05-.04V26v-.05-.04-.04-.05-.04-.04-.05-.04-.04-.04-.05-.04-.04-.04-.05-.04-.04-.04-.04-.04-.05-.04-.04-.04-.04-.04-.04-.04-.04-.04-.04-.04-.04-.04-.04-.04-.04-.04-.04-.04-.04-.04-.04-.04-.03-.04-.04-.04-.04-.03-.04-.04-.04-.03-.04-.04-.03-.04-.04-.03-.04-.03-.04-.03-.04-.04-.03-.04-.03-.03-.04-.03-.04-.03-.04-.03V23v-.04-.03-.03-.03-.04-.03-.03-.03-.03-.04-.03-.03-.03-.03-.03-.03-.03-.03-.03-.03-.03-.03-.03-.03-.03-.03-.02-.03-.03-.03-.03-.02-.03-.03-.02-.03-.03-.02-.03-.02-.03-.02-.03-.02-.03-.02-.03-.02-.02-.03-.02-.02-.03-.02-.02-.02-.02-.03-.02-.02-.02-.02-.02h-40zm0 18.54c0 7.06 2.92 13.7 8.53 18.51l26.05-30.35a15.63 15.63 0 014 5.37 15.72 15.72 0 011.42 6.47h-40zm8.53 18.51a23.59 23.59 0 0016.56 5.65h.06l.03-.01h.01c.01 0 .02 0-1.26-19.96a2530.9 2530.9 0 01-1.26-19.96h.1a16.03 16.03 0 011.95-.02 16.39 16.39 0 019.86 3.95L3.88 58.33zm15.4-14.32v20H39.91l-.1-40H19.28h-.01v20zM39.9 64c7.1-.02 13.8-3.34 18.35-8.9L27.3 29.8A16.17 16.17 0 0139.8 24l.11 40zm18.36-8.91a23.97 23.97 0 005.38-15.11 21.8 21.8 0 00-.02-.94l-19.98.77-19.99.76v-.02-.02-.05a17.13 17.13 0 01.27-3.65c.28-1.4 1.03-4.2 3.35-7.03L58.27 55.1z" mask="url(#a)"/></g><defs><clipPath id="clip0"><path fill="#fff" d="M0 0h29v31H0z" transform="translate(15 13)"/></clipPath></defs></svg>
