<svg xmlns="http://www.w3.org/2000/svg" width="60" height="60" fill="none" viewBox="0 0 60 60"><defs/><path fill="#68B738" d="M0 0h60v60H0z"/><path fill="#fff" fill-rule="evenodd" d="M36.62 15.08a1 1 0 011.09.21c.9.91 2.1 2.88 3.06 5.92A42.6 42.6 0 0142.5 34a1 1 0 01-1 1H38v9a1 1 0 11-2 0V16a1 1 0 01.62-.92zM38 33h2.5a39.62 39.62 0 00-1.64-11.19 22.4 22.4 0 00-.86-2.3V33zM24 15a1 1 0 011 1v28a1 1 0 11-2 0V16a1 1 0 011-1z" clip-rule="evenodd"/><path fill="#fff" fill-rule="evenodd" d="M19.5 15a1 1 0 011 1v5.5c0 .56.2 1.32.7 1.92.48.56 1.31 1.08 2.8 1.08a1 1 0 110 2 5.41 5.41 0 01-4.33-1.8 5.07 5.07 0 01-1.17-3.2V16a1 1 0 011-1z" clip-rule="evenodd"/><path fill="#fff" fill-rule="evenodd" d="M28.5 15a1 1 0 00-1 1v5.5c0 .56-.2 1.32-.7 1.92-.48.56-1.31 1.08-2.8 1.08a1 1 0 000 2c2.01 0 3.43-.73 4.33-1.8a5.07 5.07 0 001.17-3.2V16a1 1 0 00-1-1z" clip-rule="evenodd"/></svg>
