<svg xmlns="http://www.w3.org/2000/svg" width="202" height="59" fill="none" viewBox="0 0 202 59"><defs/><g clip-path="url(#clip0)"><path fill="#FDC305" d="M59.88 23.8a25.43 25.43 0 00-8.05-10.37 25.72 25.72 0 00-25.29-3.35A25.59 25.59 0 0016.03 18a25.3 25.3 0 00-3.55 25.05 25.42 25.42 0 007.9 10.49 25.72 25.72 0 0012.13 5.18c-.58-2.07-1.17-4.36-1.69-6.8 1.51.98 3.1 1.83 4.76 2.54 0 0 .12 2.14.28 4.53 1.79.03 3.58-.13 5.33-.47a2.1 2.1 0 010-.75c.3-1.85 1.1-5.2 1.25-7.35a15.11 15.11 0 002.9-3.68l-.06.44c-.55 4.22-1.7 8.74-2.4 9.98-.23.42-.5.8-.83 1.15a25.73 25.73 0 0016.96-13.16 25.27 25.27 0 00.87-21.34zm-1.47 3.77c-.44.42-1.35.71-1.5-.58-.15-1.29-.19-2.2-.19-2.2s-1.93-3.4-2.65-3.43c-.72-.04-5.83 3.44-7.18 4.96-1.17 1.28-1.4 1.19-1.4 3.44 0 1.7.22 8.1.1 13l-8.15 2.15c-2.56.73-5.17 1.3-7.8 1.71l-1-5.78h-.14l-2.57-13.07s-3.8-1.42-5.2-1.81a3.79 3.79 0 00-4.01.62 5.03 5.03 0 00-1.73 3.82c.21.46.37.95.48 1.44.05.48-1.2.43-2 .43s-.92-1.43-.29-3.1c.5-1.3 1.1-2.54 1.82-3.72a11.78 11.78 0 012.07-2.86s.14-.34 1.25-.24c1.11.1 7.28.42 7.28.42l.05-2.25c6.7-.92 13.47-1.36 20.24-1.33v1.82a22.67 22.67 0 018.14-1.98.92.92 0 01.77.38c.34.43 2.41 2.98 2.65 3.34.67.96 1.29 1.95 1.83 2.98a6.17 6.17 0 01-.87 1.83z"/><path fill="#F06351" d="M56.46 21.5l1 1.27c.68.96 1.29 1.95 1.83 2.98a6.17 6.17 0 01-.86 1.77c-.44.42-1.35.71-1.5-.58a52.31 52.31 0 01-.2-2.14s-1.94-3.4-2.66-3.44c-.72-.04-5.83 3.44-7.18 4.96-1.17 1.28-1.4 1.19-1.4 3.44 0 1.49.17 6.6.13 11.14 1.81.2 4.47.7 5.27 1.86 0 0-.29-7.12 7.81-3.39 0 0 .28-9.71 11.46-7.22a43.67 43.67 0 00-13.7-10.65zM45.93 19.2c.04-5.5-.43-11-1.4-16.4 0 0-.15-1.3-.87-.24-.6 1.26-1 2.6-1.2 3.97a71.46 71.46 0 00-12.82.33c-.82-2.72-2.22-3.96-2.89-3.64-.67.33-.75 3.26-.75 3.26l-.33 14.04c6.71-.92 13.49-1.36 20.26-1.33z"/><path fill="#E55645" d="M45.35 46.74c.13-1.06.2-2.47.24-4.03l-8.15 2.16a64.43 64.43 0 01-7.8 1.75l1.11 4.96c0 .11 0 .22.07.33a32.4 32.4 0 004.76 2.53 42.48 42.48 0 006.88-4.1v.06a15.12 15.12 0 002.9-3.66z"/><path fill="#000" d="M32 16.09c-.05-.1 1 .67 1.41.91.41.24.61.42.61.59 0 .17-.26.33-.62.33s-.92-.11-1-.25c-.08-.14.6 0 .94 0h.3A8.05 8.05 0 0132 16.09zM39.5 16.2s-1 1.27-1.09 1.33c-.09.06-.17.33.2.29.4-.07.81-.16 1.21-.28.11-.06.07-.2-.12-.18-.19.02-.68.05-1 .1l.85-1.25s.03-.12-.05-.01zM36.36 22.26c.47-.2.85-.55 1.1-1 .27-.65 0-.9-.45-.99-.6-.1-1.23.02-1.75.34-.39.37-.34.73 0 1 .34.26.7.48 1.1.65z"/><path fill="#F06351" d="M36 23.5c-.11.23-.27.44-.46.6-.28.23-.63.36-1 .38a2.2 2.2 0 01-1.54-.44 2 2 0 01-.53-.44 1 1 0 00-.36-.25s.75 4.08 2.57 4.73c1.82.66 2.16-.75 2.21-1.13a5.55 5.55 0 00-.82-3.21c0-.3-.02-.1-.07-.23z"/><path fill="#000" d="M34.3 24.64a3.52 3.52 0 01-2.35-1.42.15.15 0 010-.2.14.14 0 01.16-.03l.04.03a3.2 3.2 0 002.11 1.3 2.12 2.12 0 001.64-.99l.14-.19.1.22s.38.75 1 .8c.62.03 1.06-.42 1.63-1.29a.14.14 0 01.2-.04.14.14 0 01.04.2c-.67.97-1.3 1.44-1.89 1.4a1.56 1.56 0 01-1.12-.72 2.25 2.25 0 01-1.7.93z"/><path fill="#FDC305" d="M36.26 38a3.73 3.73 0 003.75-3.73 3.73 3.73 0 00-3.75-3.72 3.73 3.73 0 00-3.75 3.72A3.73 3.73 0 0036.26 38z"/><path fill="#111" d="M41.23 31.25l-3.13 1.3 1.15-5.59-7.5 9.68 3.13-1.3-1.15 5.6 7.5-9.7zm-7.39 3.8L38 29.67l-.8 3.97 2-.82-4.2 5.38.81-3.97-1.97.8zM32.44 33.59c.62 0 1.12-.5 1.12-1.11 0-.62-.5-1.12-1.12-1.12a1.12 1.12 0 100 2.22zM38.96 37.61c.44 0 .8-.35.8-.78a.79.79 0 00-.8-.78.79.79 0 00-.79.78c0 .43.36.78.8.78zM39.92 35.46c.2 0 .35-.15.35-.35 0-.19-.15-.34-.35-.34-.2 0-.35.15-.35.34 0 .2.16.35.35.35z"/><path fill="#F06351" d="M45.88 20.99a57.22 57.22 0 00-5.09 5.17 31.79 31.79 0 01-5.3 4.86c-.23-.53-1.64-1.51-1.64-1.51s-3.14-2.13-5.2-3.8a31.78 31.78 0 01-3.14-2.98l-2-.11a22.62 22.62 0 0012 8.76c.86-.13 3.28-1.85 5.1-3.25a57.44 57.44 0 006-5.86c.49-.59.88-1.26 1.13-1.98-1.14.37-1.86.7-1.86.7z"/><path fill="#FDC305" d="M65.22 3.47l-8.46 9.37-1.22-1.98L63.7 0l1.53 3.47zM62.65 17.12l5.54-4.08-.78-3.7-5.4 4.77.64 3.01zM59.92 48.97l6.13 3.16 3.01-2.33-6.69-2.72-2.45 1.9zM1.95 5.92L5.02 2.6l9.29 8.93-1.22 2.26L1.95 5.92zM7.38 16.15l-4.7-3.1-2.4 3.83 5.15 2.38 1.95-3.11zM13.91 52.13l-4.55 3.32 2.8 3.55 4.02-3.99-2.27-2.88z"/><path fill="#F06351" d="M25.93 27.77s-3.8-1.42-5.2-1.81a3.79 3.79 0 00-4 .62 5.03 5.03 0 00-1.74 3.82c.21.46.37.95.48 1.44.05.48-1.2.43-2 .43s-.92-1.43-.29-3.1c.5-1.3 1.1-2.54 1.82-3.72-5.45 2.82-15 9.33-15 9.33a46.2 46.2 0 018.19.24c5.25.52 5 4.63 5 4.63 1.85-.5 3.73-.88 5.63-1.1 2.12-.14 2.27 2.1 2.27 2.1l.53 3.83c.8-.87 1.7-1.65 2.65-2.34a6.1 6.1 0 014.38-1.3l-2.72-13.07z"/><path fill="#111" d="M85.66 41.66a8.17 8.17 0 01-1.4-5.15v-7.44a8.3 8.3 0 011.38-5.2c.93-1.18 2.51-1.77 4.75-1.76 2.24 0 3.76.53 4.55 1.56a6.63 6.63 0 011.33 4.45v1.75h-4.14v-1.9c0-.5-.04-1-.13-1.49a1.66 1.66 0 00-.47-.94 1.56 1.56 0 00-1.15-.36 1.47 1.47 0 00-1.5.74c-.26.7-.37 1.44-.34 2.18v9.44c-.04.75.1 1.5.4 2.19a1.48 1.48 0 001.44.72 1.36 1.36 0 001.4-.73c.25-.7.35-1.44.31-2.18v-1.98h4.14v1.72A7.15 7.15 0 0195 41.85c-.88 1.1-2.4 1.63-4.56 1.63-2.16 0-3.85-.6-4.78-1.82zM101.92 22.4h4.73l4 20.83h-3.94l-.7-4.6h-3.33l-.8 4.57h-4l4.04-20.8zm3.64 13.6l-1.25-8.36-1.25 8.37h2.5zM113.72 25.53h-3.23V22.4h10.72v3.13H118V43.2h-4.3l.02-17.67z"/><path fill="#444" d="M129.62 22.4h8.13v2.16h-5.2v6.87h4.22v2.06h-4.22v7.63h5.25v2.08h-8.18V22.4zM140.16 22.4h2l6 13.82V22.4h2.44v20.83h-1.87l-6-14.2V43.2h-2.48l-.1-20.8zM153.83 22.4h8.12v2.16h-5.2v6.87H161v2.06h-4.22v7.63H162v2.08h-8.18V22.4zM164.36 22.4h4.22a7.04 7.04 0 014.67 1.3c1 .86 1.49 2.27 1.49 4.22 0 2.65-.87 4.26-2.6 4.85l3 10.43h-2.83l-2.75-9.76h-2.27v9.76h-2.93V22.4zm4 8.93a3.9 3.9 0 002.7-.76 3.54 3.54 0 00.82-2.69 5.76 5.76 0 00-.3-1.98 1.88 1.88 0 00-1-1.07 4.8 4.8 0 00-2.04-.35h-1.3v6.88l1.12-.03zM178.68 41.66a9.11 9.11 0 01-1.27-5.3V29.4c-.04-1.34.13-2.68.5-3.97.29-.97.9-1.81 1.74-2.39 1.01-.6 2.18-.9 3.36-.83a5.3 5.3 0 014.18 1.47 6.9 6.9 0 011.28 4.59v.77h-2.75v-.64a11.3 11.3 0 00-.18-2.3c-.1-.49-.36-.92-.76-1.22a3.02 3.02 0 00-1.72-.4c-.65-.06-1.3.13-1.81.55-.42.39-.69.9-.77 1.46-.13.82-.19 1.65-.17 2.47v7.73a7.4 7.4 0 00.59 3.43 2.83 2.83 0 003.5.73c.38-.2.71-.47.97-.82a8 8 0 00.6-3.62v-1.46h-2.65V32.9h5.3v10.3h-1.81l-.3-2.4a3.66 3.66 0 01-3.72 2.66 4.7 4.7 0 01-4.11-1.8zM194.7 35.86l-4.53-13.46h2.72l3.2 10.04 3.17-10.04H202l-4.5 13.46v7.34h-2.8l-.01-7.34z"/></g><defs><clipPath id="clip0"><path fill="#fff" d="M0 0h202v59H0z"/></clipPath></defs></svg>
