<svg xmlns="http://www.w3.org/2000/svg" width="191" height="38" fill="none" viewBox="0 0 191 38">
  <g clip-path="url(#clip0)">
    <path fill="#FDC305" d="M6.07 20.72v-2.26c6.68-.92 13.42-1.36 20.17-1.33 0 .6 0 1.21-.06 1.82a25.52 25.52 0 016-1.82A16.67 16.67 0 00.19 20.39l5.88.33zM27.24 24.23c-1.16 1.28-1.39 1.2-1.39 3.45v9.18A16.64 16.64 0 0033.32 23a17.3 17.3 0 00-.32-3.1 33.1 33.1 0 00-5.76 4.33zM6.36 25.72s-3.79-1.44-5.19-1.83A8.54 8.54 0 000 23.61a16.65 16.65 0 008.68 14L6.36 25.72z"/>
    <path fill="#F06351" d="M26.29 17.12A89.8 89.8 0 0024.89.65S24.75-.64 24 .41c-.59 1.25-1 2.58-1.2 3.94a70.34 70.34 0 00-12.77.34C9.24 2 7.85.75 7.18 1c-.67.25-.72 3.31-.72 3.31l-.33 14.1c6.68-.9 13.42-1.34 20.16-1.29z"/>
    <path fill="#000" d="M12.41 14c0-.09 1 .68 1.41.92.41.24.61.42.61.59 0 .17-.27.34-.63.34s-.91-.12-1-.27h1.23A8.34 8.34 0 0112.41 14zM19.89 14.11l-1.09 1.33c0 .06-.17.35.18.3.41-.06.82-.16 1.22-.29.11 0 .07-.19-.11-.17-.18.02-.69.05-1 .11l.84-1.26s.07-.13-.04-.02zM16.75 20.2c.46-.2.85-.56 1.09-1 .28-.65 0-.91-.44-1-.6-.11-1.22.01-1.74.34-.39.36-.34.72-.05 1 .35.27.73.49 1.14.66z"/>
    <path fill="#F06351" d="M16.35 21.45c-.11.23-.27.43-.46.6-.28.23-.63.36-1 .38a2.15 2.15 0 01-1.47-.43 2.3 2.3 0 01-.53-.44c-.1-.11-.22-.2-.36-.26 0 0 .75 4.1 2.57 4.75 1.82.65 2.14-.75 2.2-1.13a5.61 5.61 0 00-.82-3.23c-.02-.31-.03-.11-.13-.24z"/>
    <path fill="#000" d="M14.71 22.59a3.44 3.44 0 01-2.36-1.47.14.14 0 01.03-.15.14.14 0 01.2 0c.5.7 1.26 1.16 2.11 1.3a2.1 2.1 0 001.63-1l.14-.19.1.21s.37.76 1 .8c.63.04 1.05-.41 1.61-1.28a.14.14 0 01.2 0 .15.15 0 01.05.2c-.64 1-1.27 1.44-1.88 1.4a1.55 1.55 0 01-1.12-.76 2.26 2.26 0 01-1.71.94z"/>
    <path fill="#F06351" d="M26.24 18.92a58.63 58.63 0 00-5.07 5.19A31.63 31.63 0 0115.88 29c-.22-.53-1.62-1.51-1.62-1.51s-3.13-2.14-5.18-3.82a34.14 34.14 0 01-3.13-3l-2-.11c2.89 4.2 7.12 7.3 12 8.8.86-.14 3.27-1.86 5.07-3.26a58.13 58.13 0 005.94-5.89c.5-.59.89-1.27 1.14-2-1.1.39-1.86.71-1.86.71z"/>
  </g>
  <g fill="#111" clip-path="url(#clip1)">
    <path d="M91.26 29.54a6.87 6.87 0 01-1.26-4.3v-6.4c-.1-1.54.3-3.08 1.19-4.38.86-1 2.2-1.46 4.18-1.46 1.98 0 3.24.46 4.03 1.3a5.42 5.42 0 011.19 3.78v1.54h-3.87v-1.77a3.7 3.7 0 00-.24-1.54 1.16 1.16 0 00-1.1-.62c-.56 0-.95.16-1.11.54a4.85 4.85 0 00-.24 1.7v8.22c-.04.56.07 1.12.32 1.62.15.38.55.54 1.1.54.56 0 .87-.16 1.03-.54.18-.52.26-1.07.24-1.62v-1.84h3.87v1.54a5.78 5.78 0 01-1.19 3.84c-.79.93-2.13 1.39-4.03 1.39-1.9-.08-3.32-.54-4.1-1.54zM105.25 13.23h4.5l3.33 17.54h-3.64l-.63-3.7h-2.6l-.64 3.7h-3.72l3.4-17.54zm3.24 11.54l-.94-6.85-.95 6.85h1.9zM115.84 16.15h-2.68v-2.92h9.4v2.85h-2.69v14.69h-4.03V16.15zM129.75 13.23h6.96v1.85h-4.5v5.77h3.63v1.77h-3.64v6.46h4.5v1.77h-7.03V13.23h.08zM138.76 13.23h1.74l5.14 11.62V13.23h2.05v17.54h-1.58l-5.22-12v12h-2.13V13.23zM150.06 13.23h6.96v1.85h-4.5v5.77h3.63v1.77h-3.64v6.46h4.5v1.77h-6.95V13.23zM159.07 13.23h3.64c1.43-.1 2.85.28 4.03 1.08.87.69 1.26 1.92 1.26 3.54 0 2.23-.7 3.61-2.21 4.07l2.53 8.77h-2.45l-2.37-8.23h-1.98v8.23H159V13.23h.08zm3.48 7.54c.81.06 1.63-.15 2.3-.62.47-.38.7-1.15.7-2.3a4.84 4.84 0 00-.24-1.7c-.17-.39-.48-.71-.86-.92a3.69 3.69 0 00-1.74-.3h-1.1v5.76h.94v.08zM171.16 29.46a7.6 7.6 0 01-1.1-4.46v-5.85c-.02-1.11.11-2.22.4-3.3.26-.81.78-1.51 1.5-2 .88-.51 1.9-.75 2.92-.7 1.66 0 2.84.39 3.55 1.23a5.77 5.77 0 011.11 3.85v.62h-2.37v-.54c0-.65-.05-1.29-.16-1.93-.06-.4-.3-.76-.63-1a2.5 2.5 0 00-1.5-.38 2.42 2.42 0 00-1.58.46 1.73 1.73 0 00-.64 1.23c-.1.69-.15 1.38-.15 2.08v6.54c-.06 1 .1 2 .47 2.92.32.62.95.85 1.9.85.37.04.75-.02 1.09-.19.34-.16.62-.42.8-.74.42-.97.61-2.02.56-3.07v-1.23h-2.3v-1.77h4.59v8.69h-1.58l-.24-2c-.2.67-.64 1.25-1.22 1.66-.6.4-1.3.6-2.02.57a4.05 4.05 0 01-3.4-1.54zM184.68 24.62L180.8 13.3h2.38l2.76 8.46 2.69-8.46H191l-3.87 11.3v6.16h-2.37v-6.15h-.08z"/>
  </g>
  <defs>
    <clipPath id="clip0">
      <rect width="33.32" height="37.61" fill="#fff"/>
    </clipPath>
    <clipPath id="clip1">
      <rect width="101" height="18" fill="#fff" transform="translate(90 13)"/>
    </clipPath>
  </defs>
</svg>
