<svg xmlns="http://www.w3.org/2000/svg" width="128" height="24" fill="none" viewBox="0 0 128 24">
<path d="M1.6 22.05A9.5 9.5 0 010 16.31V7.79a9.63 9.63 0 011.5-5.84C2.6.62 4.3 0 6.81 0c2.5 0 4.1.62 5.1 1.74a7.49 7.49 0 011.51 5.03v2.05h-4.9V6.46c.03-.7-.07-1.4-.3-2.05a1.46 1.46 0 00-.59-.63 1.41 1.41 0 00-.82-.19c-.7 0-1.2.2-1.4.72-.23.73-.33 1.49-.3 2.25v10.98c-.05.74.08 1.48.4 2.15.2.52.7.72 1.4.72s1.1-.2 1.3-.72c.23-.7.33-1.42.3-2.15v-2.46h4.91v2.05a7.98 7.98 0 01-1.5 5.13c-1 1.23-2.7 1.84-5.1 1.84-2.41-.1-4.22-.72-5.22-2.05zM19.33.3h5.7l4.22 23.4h-4.61l-.8-4.93h-3.3l-.8 4.92h-4.72L19.33.31zm4.1 15.4l-1.2-9.14-1.2 9.13h2.4zM32.75 4.2h-3.4V.3h11.91v3.8h-3.4v19.6h-5.1V4.2zM50.38.3h8.81v2.47h-5.7v7.7h4.6v2.35h-4.6v8.62h5.7v2.35h-8.91V.31h.1zM61.8.3H64l6.51 15.5V.3h2.6v23.4h-2l-6.6-16v16H61.8V.3zM76.12.3h8.81v2.47h-5.7v7.7h4.6v2.35h-4.6v8.62h5.7v2.35h-8.81V.31zM87.54.3h4.6a7.87 7.87 0 015.11 1.44c1.1.93 1.6 2.57 1.6 4.72 0 2.98-.9 4.82-2.8 5.44l3.2 11.69h-3.1l-3-10.97h-2.5v10.97h-3.21V.31h.1zm4.4 10.06a4.3 4.3 0 002.9-.82c.6-.51.91-1.54.91-3.08a6.77 6.77 0 00-.3-2.25 2.58 2.58 0 00-1.1-1.24 4.47 4.47 0 00-2.2-.4h-1.4v7.69h1.2v.1zM102.86 21.95a10.57 10.57 0 01-1.4-5.95V8.2c-.03-1.48.14-2.96.5-4.4a5.2 5.2 0 011.9-2.67c1.12-.68 2.41-1 3.7-.92 2.11 0 3.61.5 4.52 1.64a7.98 7.98 0 011.4 5.12v.82h-3v-.71c0-.86-.07-1.72-.2-2.57a2.06 2.06 0 00-.8-1.33 3.04 3.04 0 00-1.91-.51 2.96 2.96 0 00-2 .61 2.3 2.3 0 00-.8 1.64c-.14.92-.2 1.85-.2 2.77v8.72a9.53 9.53 0 00.6 3.9c.4.82 1.2 1.13 2.4 1.13a2.37 2.37 0 002.4-1.23c.53-1.3.77-2.7.7-4.1v-1.65h-2.9V12.1h5.8v11.6h-2l-.3-2.67c-.26.89-.8 1.67-1.55 2.2-.74.55-1.64.81-2.55.77a4.9 4.9 0 01-4.3-2.05zM119.99 15.49L115.08.4h3l3.51 11.28 3.4-11.28H128l-4.9 15.08v8.2h-3.01v-8.2h-.1z"/>
</svg>
